<svg xmlns="http://www.w3.org/2000/svg" xmlns:xlink="http://www.w3.org/1999/xlink" width="72.829" height="25.293" viewBox="0 0 72.829 25.293">
  <defs>
    <clipPath id="clip-path">
      <rect id="Rectangle_659" data-name="Rectangle 659" width="72.829" height="25.293" fill="rgba(255,255,255,0.37)"/>
    </clipPath>
  </defs>
  <g id="Group_952" data-name="Group 952" transform="translate(-1653.25 -2105.222)">
    <g id="Group_953" data-name="Group 953" transform="translate(1653.25 2105.222)">
      <g id="Group_953-2" data-name="Group 953" clip-path="url(#clip-path)">
        <path id="Path_910" data-name="Path 910" d="M926.853,322.734c.216.949.9,1.365,1.99,1.365s1.557-.431,1.557-1.123c0-.769-.456-1.1-2.072-1.479-2.572-.6-3.208-1.539-3.208-2.815,0-1.647,1.232-2.766,3.469-2.766,2.509,0,3.509,1.349,3.644,2.731h-2.059c-.1-.582-.42-1.213-1.639-1.213-.829,0-1.33.343-1.33,1.014s.4.924,1.928,1.278c2.749.648,3.352,1.67,3.352,3,0,1.726-1.306,2.91-3.8,2.91-2.4,0-3.662-1.181-3.889-2.9Z" transform="translate(-900.955 -307.772)" fill="rgba(255,255,255,0.37)"/>
        <path id="Path_911" data-name="Path 911" d="M1254.776,411.654a15.917,15.917,0,0,0,.1,1.833H1253a2.909,2.909,0,0,1-.1-.693,2.087,2.087,0,0,1-1.995.858,2.194,2.194,0,0,1-2.433-2.225c0-1.617,1.3-2.362,3.378-2.362h1.013v-.434c0-.5-.182-1-1.093-1-.83,0-1.011.352-1.1.866H1248.8c.106-1.261.886-2.281,3.043-2.269,1.9.012,2.935.755,2.935,2.444Zm-1.914-1.4h-.8c-1.183,0-1.623.361-1.623,1.046a.911.911,0,0,0,1.021.946c1.248,0,1.4-.868,1.4-1.805Z" transform="translate(-1216.287 -395.755)" fill="rgba(255,255,255,0.37)"/>
        <path id="Path_912" data-name="Path 912" d="M1549.909,299.684h1.965v1.752h-1.965Zm0,2.911h1.965v7.1h-1.965Z" transform="translate(-1509.956 -291.959)" fill="rgba(255,255,255,0.37)"/>
        <path id="Path_913" data-name="Path 913" d="M1656.073,340h1.094v-1.921h1.965V340h1.39v1.477h-1.39v3.5c0,.538.164.748.75.748a3.627,3.627,0,0,0,.447-.022v1.351a4.47,4.47,0,0,1-1.321.135c-1.384,0-1.842-.74-1.842-1.982v-3.733h-1.094Z" transform="translate(-1613.384 -329.364)" fill="rgba(255,255,255,0.37)"/>
        <path id="Path_914" data-name="Path 914" d="M1850.376,411.654a15.961,15.961,0,0,0,.1,1.833H1848.6a2.885,2.885,0,0,1-.1-.693,2.087,2.087,0,0,1-1.995.858,2.194,2.194,0,0,1-2.432-2.225c0-1.617,1.3-2.362,3.378-2.362h1.013v-.434c0-.5-.182-1-1.093-1-.83,0-1.011.352-1.1.866H1844.4c.106-1.261.886-2.281,3.044-2.269,1.9.012,2.935.755,2.935,2.444Zm-1.915-1.4h-.8c-1.184,0-1.623.361-1.623,1.046a.911.911,0,0,0,1.021.946c1.248,0,1.4-.868,1.4-1.805Z" transform="translate(-1796.534 -395.755)" fill="rgba(255,255,255,0.37)"/>
        <path id="Path_915" data-name="Path 915" d="M2144.993,408.224c0-.614,0-1.222-.014-1.829h1.878c.026.173.065.569.076.846a2.214,2.214,0,0,1,1.972-1.01,1.874,1.874,0,0,1,1.831,1.08,2.461,2.461,0,0,1,2.187-1.08c1.236,0,2.248.76,2.248,2.605v4.655h-1.916v-4.416c0-.641-.232-1.267-1.037-1.267-.835,0-1.16.538-1.16,1.627v4.057h-1.927v-4.342c0-.735-.181-1.329-1.02-1.329-.8,0-1.177.491-1.177,1.708v3.963h-1.94Z" transform="translate(-2089.687 -395.759)" fill="rgba(255,255,255,0.37)"/>
        <path id="Path_916" data-name="Path 916" d="M2583.19,411.654a15.94,15.94,0,0,0,.1,1.833h-1.877a2.915,2.915,0,0,1-.1-.693,2.087,2.087,0,0,1-1.994.858,2.194,2.194,0,0,1-2.433-2.225c0-1.617,1.3-2.362,3.378-2.362h1.013v-.434c0-.5-.181-1-1.092-1-.829,0-1.011.352-1.1.866h-1.867c.106-1.261.886-2.281,3.043-2.269,1.9.012,2.935.755,2.935,2.444Zm-1.915-1.4h-.8c-1.184,0-1.623.361-1.623,1.046a.911.911,0,0,0,1.022.946c1.248,0,1.4-.868,1.4-1.805Z" transform="translate(-2510.458 -395.755)" fill="rgba(255,255,255,0.37)"/>
        <path id="Path_917" data-name="Path 917" d="M16.445,13.938l3.13-2.011L16.961,9.74a12.858,12.858,0,0,0,.729-5.625,16.47,16.47,0,0,0-.411-2.769L16.929,0,12.1,5.865a5,5,0,0,0-4.171,0L3.105,0l-.35,1.345a16.466,16.466,0,0,0-.411,2.769A12.858,12.858,0,0,0,3.073,9.74L.459,11.927l3.13,2.011L0,17.136l5.213,3.231L6.32,25.293,9.963,22.1l3.757,3.167,1.1-4.9,5.213-3.231Zm-3.192.365-1.019-3.2.66-2.916,4.292,3.592ZM15.8,8.771l-2.521-2.11,2.885-3.506A13.184,13.184,0,0,1,15.8,8.771M11.657,7.227l-.891,3.936,1.373,4.316-.555,1.6h-.861l.009-1.862-1.418-.007-.009,1.868H8.45l-.555-1.6,1.373-4.316L8.377,7.227a3.555,3.555,0,0,1,3.28,0M3.866,3.156,6.751,6.662,4.23,8.772a13.184,13.184,0,0,1-.364-5.616M7.14,8.185,7.8,11.1,6.781,14.3,2.848,11.777Zm6.427,11.29-.719,3.2-2.9-2.447L7.18,22.654l-.714-3.179L2.361,16.931l2.466-2.2L6.51,15.814,7.441,18.5h5.152l.931-2.683,1.682-1.081,2.466,2.2Z" fill="rgba(255,255,255,0.37)"/>
      </g>
    </g>
  </g>
</svg>
