<svg xmlns="http://www.w3.org/2000/svg" width="20.839" height="22.336" viewBox="0 0 20.839 22.336">
  <g id="Group_1046" data-name="Group 1046" transform="translate(0 0)">
    <path id="Path_698" data-name="Path 698" d="M3416.961,2288.5l-1.571-1.108a8.175,8.175,0,0,0,0-2.612l1.571-1.108a1.724,1.724,0,0,0,.5-2.282l-1.026-1.776a1.725,1.725,0,0,0-2.227-.706l-1.752.81a8.168,8.168,0,0,0-2.254-1.307l-.175-1.917a1.723,1.723,0,0,0-1.725-1.575h-2.051a1.723,1.723,0,0,0-1.725,1.575l-.174,1.917a8.156,8.156,0,0,0-2.254,1.307l-1.753-.81a1.724,1.724,0,0,0-2.227.706l-1.026,1.776a1.723,1.723,0,0,0,.5,2.282l1.57,1.108a8.194,8.194,0,0,0,0,2.612l-1.57,1.108a1.723,1.723,0,0,0-.5,2.282l1.026,1.776a1.725,1.725,0,0,0,2.227.706l1.753-.81a8.134,8.134,0,0,0,2.254,1.308l.174,1.917a1.724,1.724,0,0,0,1.725,1.576h2.051a1.723,1.723,0,0,0,1.725-1.576l.175-1.917a8.138,8.138,0,0,0,2.254-1.308l1.752.81a1.724,1.724,0,0,0,2.227-.706l1.025-1.776A1.723,1.723,0,0,0,3416.961,2288.5Zm-.516,1.694-1.026,1.776a.552.552,0,0,1-.715.227l-2.095-.968a.589.589,0,0,0-.639.1,6.99,6.99,0,0,1-2.5,1.45.588.588,0,0,0-.4.506l-.208,2.291a.553.553,0,0,1-.554.506h-2.051a.554.554,0,0,1-.555-.506l-.208-2.291a.589.589,0,0,0-.4-.506,6.994,6.994,0,0,1-2.5-1.45.586.586,0,0,0-.638-.1l-2.095.968a.553.553,0,0,1-.716-.227l-1.026-1.776a.554.554,0,0,1,.161-.734l1.878-1.324a.589.589,0,0,0,.237-.6,7.034,7.034,0,0,1,0-2.9.588.588,0,0,0-.237-.6l-1.878-1.325a.554.554,0,0,1-.161-.734l1.026-1.776a.554.554,0,0,1,.716-.226l2.095.968a.587.587,0,0,0,.638-.1,6.983,6.983,0,0,1,2.5-1.449.589.589,0,0,0,.4-.506l.208-2.292a.555.555,0,0,1,.555-.506h2.051a.554.554,0,0,1,.554.506l.208,2.292a.588.588,0,0,0,.4.506,6.977,6.977,0,0,1,2.5,1.449.589.589,0,0,0,.639.1l2.095-.968a.553.553,0,0,1,.715.227l1.026,1.776a.554.554,0,0,1-.162.734l-1.877,1.325a.586.586,0,0,0-.237.6,7.012,7.012,0,0,1,0,2.9.587.587,0,0,0,.237.6l1.877,1.324A.554.554,0,0,1,3416.444,2290.19Z" transform="translate(-3396.859 -2274.915)" fill="#7440db"/>
    <path id="Path_699" data-name="Path 699" d="M3420.416,2296.378a4.506,4.506,0,1,0,4.507,4.506A4.512,4.512,0,0,0,3420.416,2296.378Zm0,7.837a3.331,3.331,0,1,1,3.331-3.331A3.334,3.334,0,0,1,3420.416,2304.215Z" transform="translate(-3409.998 -2289.717)" fill="#7440db"/>
  </g>
</svg>
